<?xml version="1.0" encoding="utf-8"?>
<!-- Generator: Adobe Illustrator 28.3.0, SVG Export Plug-In . SVG Version: 6.00 Build 0)  -->
<svg version="1.1" id="Capa_1" xmlns="http://www.w3.org/2000/svg" xmlns:xlink="http://www.w3.org/1999/xlink" x="0px" y="0px"
	 viewBox="0 0 999.27 258.93" style="enable-background:new 0 0 999.27 258.93;" xml:space="preserve">
<style type="text/css">
	.st0{fill:#727070;}
	.st1{fill:url(#SVGID_1_);}
	.st2{fill:#43A996;}
	.st3{fill:#1B81B1;}
	.st4{fill:#2D265C;}
</style>
<g>
	<g>
		<g>
			<path class="st0" d="M0,185.13v-0.18c0-18.26,13.65-33.39,32.65-33.39c11.71,0,18.73,4.15,25.18,10.24l-4.98,5.35
				c-5.44-5.17-11.53-8.86-20.29-8.86c-14.3,0-25,11.62-25,26.47v0.18c0,14.94,10.79,26.66,25,26.66c8.86,0,14.67-3.41,20.85-9.32
				l4.8,4.7c-6.73,6.83-14.11,11.35-25.83,11.35C13.74,218.34,0,203.67,0,185.13z"/>
			<path class="st0" d="M94.83,152.2h6.83l29.43,65.03h-7.84l-7.56-17.06H80.53l-7.66,17.06H65.4L94.83,152.2z M112.81,193.53
				l-14.67-32.84l-14.76,32.84H112.81z"/>
			<path class="st0" d="M143.81,152.66h7.29v57.84h36.34v6.73h-43.63V152.66z"/>
			<path class="st0" d="M200.9,152.66h22.42c20.29,0,34.31,13.93,34.31,32.1v0.18c0,18.17-14.02,32.29-34.31,32.29H200.9V152.66z
				 M208.19,159.4v51.1h15.13c16.33,0,26.75-11.07,26.75-25.37v-0.18c0-14.3-10.42-25.55-26.75-25.55H208.19z"/>
			<path class="st0" d="M273.04,152.66h46.67v6.64h-39.39v22.05h35.24v6.64h-35.24v22.6h39.85v6.64h-47.14V152.66z"/>
			<path class="st0" d="M334.84,152.66h27.77c7.93,0,14.3,2.4,18.36,6.46c3.14,3.14,4.98,7.66,4.98,12.73v0.18
				c0,10.7-7.38,16.97-17.53,18.82l19.83,26.38h-8.95l-18.73-25.09h-18.45v25.09h-7.29V152.66z M361.96,185.59
				c9.69,0,16.6-4.98,16.6-13.28v-0.18c0-7.93-6.09-12.73-16.51-12.73h-19.92v26.2H361.96z"/>
			<path class="st0" d="M398.67,185.13v-0.18c0-17.8,13.38-33.39,33.02-33.39c19.65,0,32.84,15.4,32.84,33.21v0.18
				c0,17.8-13.38,33.39-33.02,33.39C411.86,218.34,398.67,202.93,398.67,185.13z M456.97,185.13v-0.18
				c0-14.67-10.7-26.66-25.46-26.66c-14.76,0-25.27,11.81-25.27,26.47v0.18c0,14.67,10.7,26.66,25.46,26.66
				C446.46,211.6,456.97,199.8,456.97,185.13z M437.88,134.12l7.29,3.32l-10.61,8.58h-5.9L437.88,134.12z"/>
			<path class="st0" d="M479.94,152.66h6.83l40.68,51.75v-51.75h7.1v64.57h-5.81l-41.69-52.95v52.95h-7.1V152.66z"/>
			<path class="st0" d="M604.37,152.2h6.83l29.43,65.03h-7.84l-7.56-17.06h-35.14l-7.66,17.06h-7.47L604.37,152.2z M622.36,193.53
				l-14.67-32.84l-14.76,32.84H622.36z"/>
			<path class="st0" d="M646.72,185.13v-0.18c0-17.71,13.01-33.39,32.38-33.39c10.88,0,17.62,3.14,24.08,8.58l-4.7,5.53
				c-4.98-4.34-10.52-7.38-19.65-7.38c-14.3,0-24.54,12.08-24.54,26.47v0.18c0,15.41,9.87,26.84,25.55,26.84
				c7.38,0,14.21-2.86,18.63-6.46v-16.05h-19.65v-6.55h26.66v25.74c-6,5.35-15.03,9.87-25.92,9.87
				C659.26,218.34,646.72,203.58,646.72,185.13z"/>
			<path class="st0" d="M720.88,190.2v-37.54h7.29v37.08c0,13.93,7.47,21.77,19.74,21.77c11.9,0,19.46-7.2,19.46-21.31v-37.54h7.29
				v36.99c0,18.82-10.79,28.6-26.93,28.6C731.76,218.25,720.88,208.47,720.88,190.2z"/>
			<path class="st0" d="M792.55,152.66h7.29v64.57h-7.29V152.66z"/>
			<path class="st0" d="M818.75,152.66h27.77c7.93,0,14.3,2.4,18.36,6.46c3.14,3.14,4.98,7.66,4.98,12.73v0.18
				c0,10.7-7.38,16.97-17.53,18.82l19.83,26.38h-8.95l-18.73-25.09h-18.45v25.09h-7.29V152.66z M845.87,185.59
				c9.69,0,16.6-4.98,16.6-13.28v-0.18c0-7.93-6.09-12.73-16.51-12.73h-19.92v26.2H845.87z"/>
			<path class="st0" d="M885.44,152.66h27.77c7.93,0,14.3,2.4,18.36,6.46c3.14,3.14,4.98,7.66,4.98,12.73v0.18
				c0,10.7-7.38,16.97-17.53,18.82l19.83,26.38h-8.95l-18.73-25.09h-18.45v25.09h-7.29V152.66z M912.56,185.59
				c9.69,0,16.6-4.98,16.6-13.28v-0.18c0-7.93-6.09-12.73-16.51-12.73h-19.92v26.2H912.56z"/>
			<path class="st0" d="M952.13,152.66h46.67v6.64h-39.39v22.05h35.24v6.64h-35.24v22.6h39.85v6.64h-47.14V152.66z"/>
		</g>
		<g>
			<linearGradient id="SVGID_1_" gradientUnits="userSpaceOnUse" x1="1.6548" y1="63.5012" x2="1079.5728" y2="63.5012">
				<stop  offset="0" style="stop-color:#43A996"/>
				<stop  offset="0.5" style="stop-color:#1B81B1"/>
				<stop  offset="1" style="stop-color:#2D265C"/>
			</linearGradient>
			<path class="st1" d="M296.12,2.44h-33.84v122.12h92.98V94.9h-59.14V2.44z M433.59,2.44l-27.91,77.28L377.94,2.44h-37.68
				l49.37,122.99h31.4L470.58,2.44H433.59z M64.46,48.5c-17.1-3.84-21.28-6.28-21.28-11.86v-0.35c0-4.54,4.01-7.85,12.21-7.85
				c10.82,0,23.03,4.01,34.19,12.04l16.92-23.9C93.24,5.93,77.02,0.35,56.26,0.35c-29.31,0-47.28,16.4-47.28,39.08v0.35
				c0,24.95,20.06,32.27,46.06,38.21c16.75,4.01,20.76,6.63,20.76,11.86v0.35c0,5.23-4.88,8.37-14.13,8.37
				c-14.13,0-27.39-5.06-39.6-14.65l-18.84,22.5c15.18,13.43,35.59,20.24,57.22,20.24c29.66,0,49.37-14.83,49.37-39.78v-0.35
				C109.82,63.68,92.37,54.6,64.46,48.5z M165.81,1.57L114,124.56h35.41l8.72-21.98h47.28l8.72,21.98h36.29L198.43,1.57H165.81z
				 M168.08,76.24l13.78-34.54l13.61,34.54H168.08z M965.48,81.99c15.18-6.45,25.12-18.84,25.12-37.68v-0.35
				c0-12.04-3.66-21.28-10.82-28.44c-8.2-8.2-21.11-13.08-39.78-13.08h-57.74v122.12h33.84V87.58h15l24.6,36.98h38.9L965.48,81.99z
				 M956.76,46.58c0,8.9-6.8,14.48-18.14,14.48h-22.5V31.58h22.33c11.17,0,18.32,4.88,18.32,14.65V46.58z M507.21,1.57L455.4,124.56
				h35.41l8.72-21.98h47.28l8.72,21.98h36.29L539.83,1.57H507.21z M509.48,76.24l13.78-34.54l13.61,34.54H509.48z M799.24,0
				c-37.68,0-65.94,28.44-65.94,63.5v0.35c0,35.07,27.91,63.15,65.59,63.15c37.68,0,65.94-28.44,65.94-63.5v-0.35
				C864.83,28.09,836.92,0,799.24,0z M830.11,63.85c0,17.62-12.39,32.62-30.88,32.62c-18.67,0-31.4-15.35-31.4-32.97v-0.35
				c0-17.62,12.39-32.62,31.05-32.62c18.67,0,31.23,15.18,31.23,32.97V63.85z M650.95,2.44h-47.28v122.12h46.58
				c43.79,0,69.43-26.17,69.43-61.41V62.8C719.69,27.56,694.39,2.44,650.95,2.44z M685.15,63.68c0,19.71-13.43,30.88-33.84,30.88
				h-13.78V32.27h13.78c20.41,0,33.84,11.51,33.84,31.05V63.68z"/>
		</g>
	</g>
	<g>
		<circle class="st2" cx="474.95" cy="249.72" r="9.21"/>
		<circle class="st3" cx="499.27" cy="249.72" r="9.21"/>
		<circle class="st4" cx="523.58" cy="249.72" r="9.21"/>
	</g>
</g>
</svg>
